<?xml version="1.0" standalone="no"?>
<!DOCTYPE svg PUBLIC "-//W3C//DTD SVG 20010904//EN"
 "http://www.w3.org/TR/2001/REC-SVG-20010904/DTD/svg10.dtd">
<svg version="1.0" xmlns="http://www.w3.org/2000/svg"
 width="300.000000pt" height="50.000000pt" viewBox="0 0 300.000000 50.000000"
 preserveAspectRatio="xMidYMid meet">
<metadata>
Created by potrace 1.10, written by Peter Selinger 2001-2011
</metadata>
<g transform="translate(0.000000,50.000000) scale(0.100000,-0.100000)"
fill="#000000" stroke="none">
<path d="M1303 493 c-194 -3 -234 -9 -203 -28 6 -4 10 -55 10 -119 0 -91 5
-128 25 -197 34 -113 32 -122 -30 -131 -65 -8 -345 -8 -410 0 -63 9 -66 21
-31 132 22 67 26 100 26 195 0 90 3 117 16 129 14 15 -18 16 -348 14 l-363 -3
337 -2 338 -3 0 -120 c0 -99 -4 -132 -25 -197 -14 -43 -25 -90 -25 -105 l0
-28 -167 -2 c-93 -1 -186 -3 -208 -4 -22 -2 -87 -4 -145 -5 -58 -2 53 -6 245
-9 466 -7 2675 2 2605 11 -30 4 -440 7 -910 8 l-855 0 -6 43 c-3 24 -14 61
-24 83 -15 31 -20 72 -23 183 l-4 142 938 2 c646 1 848 4 649 8 -294 7 -1025
8 -1412 3z"/>
<path d="M743 463 c-22 -4 -23 -8 -23 -128 0 -106 -4 -135 -26 -205 -15 -44
-23 -84 -19 -88 13 -13 433 -8 446 5 9 9 7 25 -11 70 -18 47 -23 85 -27 199
l-6 142 -51 6 c-56 6 -247 6 -283 -1z m308 -34 c5 -8 9 -51 9 -96 0 -109 -6
-113 -155 -112 -164 1 -159 -1 -163 94 -2 44 0 90 3 102 7 28 30 32 178 29 91
-2 121 -6 128 -17z m-137 -228 c3 -5 -1 -11 -9 -15 -15 -6 -29 7 -18 18 9 9
21 8 27 -3z m140 -21 c4 -4 5 -13 2 -19 -9 -14 -36 -15 -36 -1 0 5 -12 16 -27
25 l-28 16 40 -6 c22 -4 44 -10 49 -15z m-264 -5 c0 -9 -7 -18 -16 -22 -18 -7
-39 11 -30 26 11 17 46 13 46 -4z m79 1 c9 -10 8 -15 -3 -19 -14 -5 -36 10
-36 25 0 13 27 9 39 -6z m99 -3 c5 -17 -26 -29 -40 -15 -6 6 -7 15 -3 22 9 14
37 9 43 -7z m-130 -40 c2 -7 -4 -16 -12 -19 -19 -7 -49 14 -40 28 8 13 46 6
52 -9z m80 5 c-5 -15 -48 -24 -48 -10 0 14 12 22 33 22 10 0 17 -5 15 -12z
m95 -3 c-3 -13 -53 -20 -53 -7 0 15 13 23 35 20 11 -2 19 -7 18 -13z m77 -22
c8 -21 16 -41 18 -45 2 -5 -24 -8 -57 -8 -34 0 -61 3 -61 7 0 9 72 83 80 83 3
0 12 -17 20 -37z m-318 0 c41 -39 36 -53 -17 -53 -44 0 -45 0 -45 33 0 55 19
61 62 20z m197 -32 c10 -7 2 -11 -30 -16 -59 -9 -111 -3 -117 13 -4 14 124 17
147 3z"/>
<path d="M770 340 l0 -80 130 0 130 0 0 80 0 80 -130 0 -130 0 0 -80z m208 54
c19 -6 22 -13 22 -61 l0 -54 -102 3 -102 3 3 50 c1 27 8 53 14 57 14 9 133 10
165 2z"/>
<path d="M1322 354 c-31 -22 -26 -63 10 -84 21 -11 32 -12 45 -4 26 16 23 48
-4 52 -13 2 -23 -1 -23 -7 0 -6 7 -11 15 -11 8 0 15 -4 15 -10 0 -14 -23 -12
-45 4 -25 18 -13 45 25 52 16 4 30 10 30 15 0 15 -44 10 -68 -7z"/>
<path d="M1414 339 c3 -17 6 -42 6 -55 0 -29 16 -32 23 -4 3 11 10 20 16 20 6
0 15 -9 21 -20 17 -32 26 -23 22 23 -5 54 -17 67 -59 67 -34 0 -35 -1 -29 -31z
m64 -6 c2 -8 -6 -13 -22 -13 -25 0 -33 10 -19 24 10 10 36 3 41 -11z"/>
<path d="M1520 315 c0 -30 5 -55 10 -55 6 0 10 25 10 55 0 30 -4 55 -10 55 -5
0 -10 -25 -10 -55z"/>
<path d="M1570 315 c0 -54 1 -55 29 -55 39 0 51 18 44 68 -5 40 -7 42 -39 42
l-34 0 0 -55z m50 25 c0 -5 -9 -10 -20 -10 -11 0 -20 5 -20 10 0 6 9 10 20 10
11 0 20 -4 20 -10z m10 -39 c0 -6 -5 -13 -10 -16 -15 -9 -43 3 -35 15 8 13 45
13 45 1z"/>
<path d="M1672 318 c3 -49 5 -53 29 -56 36 -4 49 16 42 66 -5 40 -7 42 -40 42
l-34 0 3 -52z m58 22 c0 -5 -9 -10 -20 -10 -11 0 -20 5 -20 10 0 6 9 10 20 10
11 0 20 -4 20 -10z m-7 -45 c1 -5 -6 -11 -15 -13 -11 -2 -18 3 -18 13 0 17 30
18 33 0z"/>
<path d="M1770 315 l0 -55 35 0 c39 0 48 17 13 22 -19 2 -24 10 -26 46 -5 61
-22 52 -22 -13z"/>
<path d="M1860 315 l0 -55 35 0 c19 0 35 5 35 10 0 6 -11 10 -25 10 -16 0 -25
6 -25 15 0 8 9 15 20 15 11 0 20 5 20 10 0 6 -9 10 -20 10 -11 0 -20 5 -20 10
0 6 11 10 25 10 14 0 25 5 25 10 0 6 -16 10 -35 10 l-35 0 0 -55z"/>
<path d="M1300 157 c0 -31 27 -57 36 -34 9 25 0 51 -19 55 -12 3 -17 -3 -17
-21z"/>
<path d="M1494 164 c3 -9 6 -22 6 -30 0 -8 5 -14 11 -14 6 0 8 9 4 20 -4 11
-2 20 4 20 6 0 11 5 11 10 0 6 -9 10 -21 10 -15 0 -19 -4 -15 -16z"/>
<path d="M1680 153 c0 -25 15 -38 25 -22 4 6 0 18 -9 27 -15 15 -16 15 -16 -5z"/>
<path d="M1721 163 c0 -5 4 -17 9 -28 8 -18 9 -17 9 8 1 15 -3 27 -9 27 -5 0
-10 -3 -9 -7z"/>
<path d="M1350 147 c0 -17 24 -40 33 -30 4 3 7 16 6 27 0 12 -3 15 -6 8 -4
-10 -8 -10 -19 -1 -11 9 -14 8 -14 -4z"/>
<path d="M1405 150 c-3 -5 0 -18 7 -29 14 -23 38 -11 38 20 0 20 -34 27 -45 9z
m35 -10 c0 -5 -4 -10 -10 -10 -5 0 -10 5 -10 10 0 6 5 10 10 10 6 0 10 -4 10
-10z"/>
<path d="M1540 144 c0 -14 3 -14 15 -4 8 7 15 14 15 16 0 2 -7 4 -15 4 -8 0
-15 -7 -15 -16z"/>
<path d="M1577 146 c-7 -18 1 -26 25 -26 11 0 18 7 18 20 0 23 -35 28 -43 6z
m28 -6 c3 -5 1 -10 -4 -10 -6 0 -11 5 -11 10 0 6 2 10 4 10 3 0 8 -4 11 -10z"/>
<path d="M1633 144 c-8 -22 13 -42 29 -26 9 9 8 12 -5 12 -22 0 -22 17 1 23
16 4 16 5 -1 6 -10 0 -20 -6 -24 -15z"/>
<path d="M1751 138 c0 -13 3 -17 6 -9 4 11 7 11 14 0 10 -17 23 -5 16 16 -10
24 -37 18 -36 -7z"/>
<path d="M1800 146 c0 -8 5 -18 11 -22 8 -4 7 -9 -2 -15 -11 -7 -11 -9 2 -9
17 0 29 19 29 46 0 8 -9 14 -20 14 -11 0 -20 -6 -20 -14z m30 -6 c0 -5 -4 -10
-10 -10 -5 0 -10 5 -10 10 0 6 5 10 10 10 6 0 10 -4 10 -10z"/>
</g>
</svg>
