<?xml version="1.0" standalone="no"?>
<!DOCTYPE svg PUBLIC "-//W3C//DTD SVG 20010904//EN"
 "http://www.w3.org/TR/2001/REC-SVG-20010904/DTD/svg10.dtd">
<svg version="1.0" xmlns="http://www.w3.org/2000/svg"
 width="300.000000pt" height="300.000000pt" viewBox="0 0 300.000000 300.000000"
 preserveAspectRatio="xMidYMid meet">
<metadata>
Created by potrace 1.10, written by Peter Selinger 2001-2011
</metadata>
<g transform="translate(0.000000,300.000000) scale(0.100000,-0.100000)"
fill="#000000" stroke="none">
<path d="M0 1740 c0 -6 118 -10 335 -10 l335 0 0 -129 c0 -113 -3 -137 -25
-195 -14 -37 -25 -81 -25 -99 l0 -32 -305 -1 c-168 0 -308 -4 -312 -7 -18 -19
-133 -18 1925 -17 904 0 1072 2 1072 14 0 11 -143 13 -907 12 l-908 -1 -3 35
c-3 35 -5 41 -36 113 -12 29 -16 70 -16 172 l0 135 935 0 c617 0 935 3 935 10
0 7 -329 10 -967 10 -878 0 -965 -1 -945 -16 21 -14 22 -22 22 -143 0 -113 3
-137 25 -195 28 -73 31 -106 13 -124 -17 -17 -479 -17 -496 0 -18 18 -14 58
13 128 22 56 25 79 25 189 0 128 3 144 30 154 8 3 -150 6 -352 6 -239 1 -368
-3 -368 -9z"/>
<path d="M727 1714 c-4 -4 -7 -65 -7 -135 0 -113 -3 -136 -26 -198 -14 -39
-24 -78 -20 -86 5 -13 38 -15 226 -15 254 0 246 -3 209 88 -20 48 -24 80 -29
202 l-5 145 -171 3 c-93 1 -173 -1 -177 -4z m321 -26 c8 -8 12 -45 12 -99 0
-120 1 -119 -156 -119 -69 0 -134 5 -145 10 -17 9 -19 22 -19 103 0 59 4 97
12 105 8 8 56 12 148 12 92 0 140 -4 148 -12z m-139 -249 c-15 -9 -32 -2 -24
11 3 5 13 6 21 3 12 -4 13 -8 3 -14z m145 -9 c4 -4 5 -13 2 -19 -11 -18 -37
-12 -43 9 -3 11 -8 18 -12 16 -4 -3 -13 0 -21 5 -11 8 -3 9 25 4 22 -4 44 -10
49 -15z m-264 -5 c0 -9 -7 -18 -16 -22 -18 -7 -39 11 -30 26 11 17 46 13 46
-4z m85 -5 c0 -22 -39 -19 -43 3 -3 15 1 18 20 15 12 -2 23 -10 23 -18z m93 3
c5 -17 -26 -29 -40 -15 -6 6 -7 15 -3 22 9 14 37 9 43 -7z m-169 -86 c10 -14
7 -19 -13 -27 -13 -5 -37 -8 -53 -7 -25 3 -28 7 -26 35 0 18 6 39 13 47 11 13
16 12 40 -8 15 -12 33 -30 39 -40z m36 43 c0 -8 -7 -16 -15 -17 -22 -4 -44 13
-35 26 10 17 50 9 50 -9z m88 5 c-3 -13 -53 -20 -53 -7 0 15 13 23 35 20 11
-2 19 -7 18 -13z m95 -2 c2 -9 -7 -13 -27 -13 -30 0 -39 9 -24 24 11 10 46 3
51 -11z m74 -25 c10 -23 17 -43 15 -44 -8 -8 -97 -10 -109 -3 -10 6 -6 16 17
41 32 34 47 48 55 48 3 0 13 -19 22 -42z m-117 -33 c0 -6 -34 -11 -77 -13 -66
-2 -78 0 -78 13 0 13 12 15 78 13 43 -2 77 -7 77 -13z"/>
<path d="M770 1590 l0 -80 130 0 130 0 0 80 0 80 -130 0 -130 0 0 -80z m226
48 c5 -7 8 -23 7 -35 -1 -13 -1 -34 -2 -48 l-1 -26 -102 3 -103 3 1 45 c1 25
2 51 3 58 1 17 187 17 197 0z"/>
<path d="M1317 1602 c-22 -24 -21 -55 1 -75 33 -30 82 -18 82 19 0 19 -5 24
-25 24 -14 0 -25 -4 -25 -10 0 -5 7 -10 15 -10 8 0 15 -5 15 -11 0 -16 -42 -6
-53 13 -14 22 7 48 39 48 13 0 24 5 24 10 0 17 -56 11 -73 -8z"/>
<path d="M1416 1568 c1 -29 7 -54 13 -56 6 -2 11 6 11 17 0 28 36 28 43 1 3
-11 10 -20 17 -20 6 0 8 5 4 12 -4 6 -8 30 -8 52 -1 41 -1 41 -42 44 l-41 3 3
-53z m64 17 c0 -9 -9 -15 -25 -15 -16 0 -25 6 -25 15 0 9 9 15 25 15 16 0 25
-6 25 -15z"/>
<path d="M1520 1565 c0 -30 5 -55 10 -55 6 0 10 25 10 55 0 30 -4 55 -10 55
-5 0 -10 -25 -10 -55z"/>
<path d="M1570 1565 c0 -54 1 -55 29 -55 34 0 56 23 46 47 -5 10 -7 28 -6 41
2 19 -2 22 -33 22 l-36 0 0 -55z m50 25 c0 -5 -9 -10 -20 -10 -11 0 -20 5 -20
10 0 6 9 10 20 10 11 0 20 -4 20 -10z m10 -45 c0 -9 -9 -15 -23 -15 -14 0 -24
6 -24 15 0 9 10 15 24 15 14 0 23 -6 23 -15z"/>
<path d="M1670 1565 c0 -53 1 -55 28 -55 42 0 52 11 47 55 -2 22 -4 43 -4 48
-1 4 -17 7 -36 7 l-35 0 0 -55z m60 25 c0 -5 -9 -10 -20 -10 -11 0 -20 5 -20
10 0 6 9 10 20 10 11 0 20 -4 20 -10z m0 -45 c0 -8 -9 -15 -20 -15 -11 0 -20
7 -20 15 0 8 9 15 20 15 11 0 20 -7 20 -15z"/>
<path d="M1770 1565 l0 -55 35 0 c19 0 35 5 35 10 0 6 -11 10 -25 10 -23 0
-25 4 -25 45 0 25 -4 45 -10 45 -5 0 -10 -25 -10 -55z"/>
<path d="M1860 1565 l0 -55 35 0 c19 0 35 5 35 10 0 6 -11 10 -25 10 -16 0
-25 6 -25 15 0 8 9 15 20 15 11 0 20 5 20 10 0 6 -9 10 -20 10 -11 0 -20 5
-20 10 0 6 11 10 25 10 14 0 25 5 25 10 0 6 -16 10 -35 10 l-35 0 0 -55z"/>
<path d="M1300 1402 c0 -32 27 -52 36 -27 9 23 0 50 -19 53 -13 3 -17 -3 -17
-26z"/>
<path d="M1494 1414 c3 -9 6 -22 6 -30 0 -8 5 -14 11 -14 6 0 8 9 4 20 -4 11
-2 20 4 20 6 0 11 5 11 10 0 6 -9 10 -21 10 -15 0 -19 -4 -15 -16z"/>
<path d="M1681 1404 c-1 -19 4 -31 12 -31 7 0 13 8 13 18 0 10 -3 16 -7 13 -4
-2 -10 4 -12 13 -3 10 -5 4 -6 -13z"/>
<path d="M1728 1395 c2 -14 6 -25 8 -25 2 0 4 11 4 25 0 14 -4 25 -9 25 -4 0
-6 -11 -3 -25z"/>
<path d="M1350 1397 c0 -8 7 -20 15 -27 12 -10 16 -9 21 4 3 8 4 21 1 28 -4 8
-6 6 -6 -4 -1 -10 -6 -18 -12 -18 -5 0 -8 4 -4 9 3 5 1 12 -5 16 -5 3 -10 0
-10 -8z"/>
<path d="M1404 1398 c-4 -6 1 -17 10 -24 13 -9 14 -13 4 -18 -7 -3 -4 -5 7 -3
29 3 35 57 6 57 -11 0 -23 -5 -27 -12z m36 -8 c0 -5 -7 -10 -16 -10 -8 0 -12
5 -9 10 3 6 10 10 16 10 5 0 9 -4 9 -10z"/>
<path d="M1541 1388 c0 -16 2 -18 6 -8 3 8 11 18 17 22 7 5 4 8 -6 8 -12 0
-18 -7 -17 -22z"/>
<path d="M1577 1396 c-7 -18 11 -36 29 -29 21 8 17 43 -5 43 -10 0 -21 -6 -24
-14z m28 -6 c3 -5 1 -10 -4 -10 -6 0 -11 5 -11 10 0 6 2 10 4 10 3 0 8 -4 11
-10z"/>
<path d="M1633 1394 c-8 -22 13 -42 29 -26 9 9 8 12 -5 12 -22 0 -22 17 1 23
16 4 16 5 -1 6 -10 0 -20 -6 -24 -15z"/>
<path d="M1751 1388 c0 -22 1 -22 9 -3 7 17 9 17 9 3 1 -10 6 -18 12 -18 17 0
5 34 -14 38 -12 3 -17 -3 -16 -20z"/>
<path d="M1800 1390 c0 -12 7 -20 18 -21 15 0 14 -2 -3 -10 -20 -9 -20 -9 0
-6 14 1 21 11 23 30 3 22 -1 27 -17 27 -14 0 -21 -6 -21 -20z m30 0 c0 -5 -4
-10 -10 -10 -5 0 -10 5 -10 10 0 6 5 10 10 10 6 0 10 -4 10 -10z"/>
</g>
</svg>
